# xmcd
#
# Track frame offsets:
#	150
#	17811
#	29812
#	46475
#	58646
#	74016
#	84557
#	97890
#	123658
#	139508
#	153094
#	174485
#	193797
#	207700
#	219971
#	235224
#
# Disc length: 3267 seconds
# Revision: 0
# Processed by: cddbd v1.5.2PL0 Copyright (c) Steve Scherf et al.
# Submitted via: dBpowerAMP V12.0
#
DISCID=e90cc110
DTITLE=16 plus beaux slows - d'hier et d'aujourd
DYEAR=1900
DGENRE=Country
TTITLE0=Je pense a toi
TTITLE1=Avant me dire adieu
TTITLE2=L'histoire d'amour est comment
TTITLE3=Vieus t'etendre au creux de 
TTITLE4=Je t'aime encore
TTITLE5=Reviens-moi mon amour
TTITLE6=Melancolie
TTITLE7=La vieille dame
TTITLE8=Pour la vie
TTITLE9=L'anneau d'amour
TTITLE10=Reviens vers moi
TTITLE11=Une femme en amour
TTITLE12=Je te dois
TTITLE13=Je t'aime et je te veux
TTITLE14=Que calor la vida
TTITLE15=Ne reste pas la
EXTD=
EXTT0=
EXTT1=
EXTT2=
EXTT3=
EXTT4=
EXTT5=
EXTT6=
EXTT7=
EXTT8=
EXTT9=
EXTT10=
EXTT11=
EXTT12=
EXTT13=
EXTT14=
EXTT15=
PLAYORDER=
